<?xml version="1.0" ?><svg enable-background="new 0 0 32 32" version="1.1" viewBox="0 0 32 32" xml:space="preserve" xmlns="http://www.w3.org/2000/svg" xmlns:xlink="http://www.w3.org/1999/xlink"><g id="Layer_7"><g><path d="M16-0.016c-8.837,0-16,7.163-16,16c0,8.836,7.163,16,16,16s16-7.164,16-16C32,7.148,24.837-0.016,16-0.016    z" fill="#999999"/></g><path d="M18.76,10.345c0-1.424,2.862-2.162,2.862,0.246c-0.008,1.322-0.19,2.542-0.481,3.659h2.975   c0.226-1.348,0.217-2.681,0.217-4.251c0-4.421-8.333-5.158-8.333,0.444c0,3.933,1.893,6.003,3.873,7.093   C18.224,20.705,16,22.432,16,22.432C9.776,17.47,10.379,9.067,10.379,9.067H7.667c0.051,11.351,6.176,15.33,6.929,15.921   c0.752,0.591,0.903,0.541,1.807,0.491c0.902-0.049,2.959-2.065,5.47-5.895c0.242-0.371,0.46-0.726,0.657-1.071   c1.051,0.23,1.802,0.235,1.802,0.235v-2.408C19.061,15.848,18.76,11.427,18.76,10.345z" fill="#FFFFFF"/></g></svg>